<?xml version="1.0" encoding="UTF-8" standalone="no"?>
<!-- Created with Inkscape (http://www.inkscape.org/) -->

<svg
   xmlns:dc="http://purl.org/dc/elements/1.1/"
   xmlns:cc="http://creativecommons.org/ns#"
   xmlns:rdf="http://www.w3.org/1999/02/22-rdf-syntax-ns#"
   xmlns:svg="http://www.w3.org/2000/svg"
   xmlns="http://www.w3.org/2000/svg"
   xmlns:sodipodi="http://sodipodi.sourceforge.net/DTD/sodipodi-0.dtd"
   xmlns:inkscape="http://www.inkscape.org/namespaces/inkscape"
   width="500"
   height="500"
   id="svg4013"
   version="1.1"
   inkscape:version="0.48.4 r9939"
   inkscape:export-filename="C:\Projects\github_wmaurer\OpenTrackLogger\OpenTrackLogger\Assets\Tiles\FlipCycleTileSmall.png"
   inkscape:export-xdpi="28.620001"
   inkscape:export-ydpi="28.620001"
   sodipodi:docname="logo.svg">
  <defs
     id="defs4015" />
  <sodipodi:namedview
     id="base"
     pagecolor="#49bdef"
     bordercolor="#666666"
     borderopacity="1.0"
     inkscape:pageopacity="1"
     inkscape:pageshadow="2"
     inkscape:zoom="0.70710678"
     inkscape:cx="265.78096"
     inkscape:cy="297.81366"
     inkscape:document-units="px"
     inkscape:current-layer="layer1"
     showgrid="false"
     inkscape:window-width="1600"
     inkscape:window-height="847"
     inkscape:window-x="-8"
     inkscape:window-y="-8"
     inkscape:window-maximized="1" />
  <metadata
     id="metadata4018">
    <rdf:RDF>
      <cc:Work
         rdf:about="">
        <dc:format>image/svg+xml</dc:format>
        <dc:type
           rdf:resource="http://purl.org/dc/dcmitype/StillImage" />
        <dc:title></dc:title>
      </cc:Work>
    </rdf:RDF>
  </metadata>
  <g
     inkscape:label="Layer 1"
     inkscape:groupmode="layer"
     id="layer1"
     transform="translate(0,-552.36218)">
    <path
       style="fill:none;stroke:#ffffff;stroke-width:3;stroke-linecap:butt;stroke-linejoin:miter;stroke-miterlimit:4;stroke-opacity:1;stroke-dasharray:none"
       d="m 150,737.36216 0,240.00002"
       id="path4039"
       inkscape:connector-curvature="0"
       sodipodi:nodetypes="cc" />
    <path
       style="fill:none;stroke:#ffffff;stroke-width:3;stroke-linecap:butt;stroke-linejoin:miter;stroke-miterlimit:4;stroke-opacity:1;stroke-dasharray:none"
       d="m 250,677.36216 0,240"
       id="path4039-1"
       inkscape:connector-curvature="0"
       sodipodi:nodetypes="cc" />
    <path
       style="fill:none;stroke:#ffffff;stroke-width:3;stroke-linecap:butt;stroke-linejoin:miter;stroke-miterlimit:4;stroke-opacity:1;stroke-dasharray:none"
       d="m 350,737.36216 0,240.00002"
       id="path4039-7"
       inkscape:connector-curvature="0"
       sodipodi:nodetypes="cc" />
    <path
       style="fill:none;stroke:#ffffff;stroke-width:10;stroke-linecap:butt;stroke-linejoin:miter;stroke-miterlimit:4;stroke-opacity:1;stroke-dasharray:none"
       d="m 55,917.36216 95,60.00002 100,-60.00002 100,60.00002 95,-60.00002 0,-240 -95,60 -100,-60 -100,60 -95,-60 0,240"
       id="path4039-1-4-4"
       inkscape:connector-curvature="0"
       sodipodi:nodetypes="ccccccccccc" />
    <path
       style="font-size:medium;font-style:normal;font-variant:normal;font-weight:normal;font-stretch:normal;text-indent:0;text-align:start;text-decoration:none;line-height:normal;letter-spacing:normal;word-spacing:normal;text-transform:none;direction:ltr;block-progression:tb;writing-mode:lr-tb;text-anchor:start;baseline-shift:baseline;color:#000000;fill:#49bdef;fill-opacity:1;fill-rule:nonzero;stroke:#49bdef;stroke-width:9.01751328;stroke-opacity:1;marker:none;visibility:visible;display:inline;overflow:visible;enable-background:accumulate;font-family:Sans;-inkscape-font-specification:Sans"
       d="m 391.16072,584.7513 c -37.33611,0 -67.63134,30.2947 -67.63134,67.63134 0,27.65342 13.34172,43.12947 28.14266,61.71997 14.8009,18.5905 32.44831,40.43889 39.48869,81.63117 l 0,0 c 7.04087,-41.19254 24.68792,-63.04073 39.48868,-81.63117 14.80081,-18.59044 28.14267,-34.06656 28.14267,-61.71997 0,-37.33661 -30.2942,-67.63134 -67.63136,-67.63134 z"
       id="location-3-icon-82"
       inkscape:connector-curvature="0"
       sodipodi:nodetypes="sssccsss" />
    <path
       id="location-3-icon"
       d="m 391.16073,597.36216 c -32.49551,0 -58.83927,26.34331 -58.83927,58.83927 0,48.31899 46.27832,53.42921 58.83927,126.92149 C 403.72258,709.63019 450,704.52042 450,656.20143 c 0,-32.49596 -26.34286,-58.83927 -58.83927,-58.83927 z m 0,78.51232 c -11.65424,0 -21.10143,-9.44719 -21.10143,-21.10098 0,-11.65378 9.44719,-21.10098 21.10143,-21.10098 11.65424,0 21.10143,9.4472 21.10143,21.10098 0,11.65379 -9.44719,21.10098 -21.10143,21.10098 z"
       inkscape:connector-curvature="0"
       style="fill:#00ff00;fill-opacity:1" />
  </g>
</svg>
